<svg width="24" height="24" viewBox="0 0 24 24" fill="none" xmlns="http://www.w3.org/2000/svg">
<path d="M5 20C4.45 20 3.97934 19.8043 3.588 19.413C3.19667 19.0217 3.00067 18.5507 3 18C2.99934 17.4493 3.19534 16.9787 3.588 16.588C3.98067 16.1973 4.45133 16.0013 5 16H19C19.55 16 20.021 16.196 20.413 16.588C20.805 16.98 21.0007 17.4507 21 18C20.9993 18.5493 20.8037 19.0203 20.413 19.413C20.0223 19.8057 19.5513 20.0013 19 20H5ZM5 8C4.45 8 3.97934 7.80433 3.588 7.413C3.19667 7.02167 3.00067 6.55067 3 6C2.99934 5.44933 3.19534 4.97867 3.588 4.588C3.98067 4.19733 4.45133 4.00133 5 4H19C19.55 4 20.021 4.196 20.413 4.588C20.805 4.98 21.0007 5.45067 21 6C20.9993 6.54933 20.8037 7.02033 20.413 7.413C20.0223 7.80567 19.5513 8.00133 19 8H5ZM5 14C4.45 14 3.97934 13.8043 3.588 13.413C3.19667 13.0217 3.00067 12.5507 3 12C2.99934 11.4493 3.19534 10.9787 3.588 10.588C3.98067 10.1973 4.45133 10.0013 5 10H19C19.55 10 20.021 10.196 20.413 10.588C20.805 10.98 21.0007 11.4507 21 12C20.9993 12.5493 20.8037 13.0203 20.413 13.413C20.0223 13.8057 19.5513 14.0013 19 14H5ZM6 7C6.28333 7 6.521 6.904 6.713 6.712C6.905 6.52 7.00067 6.28267 7 6C6.99934 5.71733 6.90333 5.48 6.712 5.288C6.52067 5.096 6.28333 5 6 5C5.71667 5 5.47934 5.096 5.288 5.288C5.09667 5.48 5.00067 5.71733 5 6C4.99934 6.28267 5.09534 6.52033 5.288 6.713C5.48067 6.90567 5.718 7.00133 6 7ZM6 13C6.28333 13 6.521 12.904 6.713 12.712C6.905 12.52 7.00067 12.2827 7 12C6.99934 11.7173 6.90333 11.48 6.712 11.288C6.52067 11.096 6.28333 11 6 11C5.71667 11 5.47934 11.096 5.288 11.288C5.09667 11.48 5.00067 11.7173 5 12C4.99934 12.2827 5.09534 12.5203 5.288 12.713C5.48067 12.9057 5.718 13.0013 6 13ZM6 19C6.28333 19 6.521 18.904 6.713 18.712C6.905 18.52 7.00067 18.2827 7 18C6.99934 17.7173 6.90333 17.48 6.712 17.288C6.52067 17.096 6.28333 17 6 17C5.71667 17 5.47934 17.096 5.288 17.288C5.09667 17.48 5.00067 17.7173 5 18C4.99934 18.2827 5.09534 18.5203 5.288 18.713C5.48067 18.9057 5.718 19.0013 6 19Z" fill="black"/>
</svg>
