<svg width="24" height="24" viewBox="0 0 24 24" fill="none" xmlns="http://www.w3.org/2000/svg">
<path d="M7 18H10.5C10.7833 18 11.021 17.904 11.213 17.712C11.405 17.52 11.5007 17.2827 11.5 17V15C11.5 14.7167 11.404 14.4793 11.212 14.288C11.02 14.0967 10.7827 14.0007 10.5 14H7C6.71667 14 6.47933 14.096 6.288 14.288C6.09667 14.48 6.00067 14.7173 6 15V17C6 17.2833 6.096 17.521 6.288 17.713C6.48 17.905 6.71733 18.0007 7 18ZM7 13H10.5C10.7833 13 11.021 12.904 11.213 12.712C11.405 12.52 11.5007 12.2827 11.5 12V7C11.5 6.71667 11.404 6.47933 11.212 6.288C11.02 6.09667 10.7827 6.00067 10.5 6H7C6.71667 6 6.47933 6.096 6.288 6.288C6.09667 6.48 6.00067 6.71733 6 7V12C6 12.2833 6.096 12.521 6.288 12.713C6.48 12.905 6.71733 13.0007 7 13ZM13.5 18H17C17.2833 18 17.521 17.904 17.713 17.712C17.905 17.52 18.0007 17.2827 18 17V12C18 11.7167 17.904 11.4793 17.712 11.288C17.52 11.0967 17.2827 11.0007 17 11H13.5C13.2167 11 12.9793 11.096 12.788 11.288C12.5967 11.48 12.5007 11.7173 12.5 12V17C12.5 17.2833 12.596 17.521 12.788 17.713C12.98 17.905 13.2173 18.0007 13.5 18ZM13.5 10H17C17.2833 10 17.521 9.904 17.713 9.712C17.905 9.52 18.0007 9.28267 18 9V7C18 6.71667 17.904 6.47933 17.712 6.288C17.52 6.09667 17.2827 6.00067 17 6H13.5C13.2167 6 12.9793 6.096 12.788 6.288C12.5967 6.48 12.5007 6.71733 12.5 7V9C12.5 9.28333 12.596 9.521 12.788 9.713C12.98 9.905 13.2173 10.0007 13.5 10ZM5 21C4.45 21 3.97933 20.8043 3.588 20.413C3.19667 20.0217 3.00067 19.5507 3 19V5C3 4.45 3.196 3.97933 3.588 3.588C3.98 3.19667 4.45067 3.00067 5 3H19C19.55 3 20.021 3.196 20.413 3.588C20.805 3.98 21.0007 4.45067 21 5V7H22C22.2833 7 22.521 7.096 22.713 7.288C22.905 7.48 23.0007 7.71733 23 8C22.9993 8.28267 22.9033 8.52033 22.712 8.713C22.5207 8.90567 22.2833 9.00133 22 9H21V11H22C22.2833 11 22.521 11.096 22.713 11.288C22.905 11.48 23.0007 11.7173 23 12C22.9993 12.2827 22.9033 12.5203 22.712 12.713C22.5207 12.9057 22.2833 13.0013 22 13H21V15H22C22.2833 15 22.521 15.096 22.713 15.288C22.905 15.48 23.0007 15.7173 23 16C22.9993 16.2827 22.9033 16.5203 22.712 16.713C22.5207 16.9057 22.2833 17.0013 22 17H21V19C21 19.55 20.8043 20.021 20.413 20.413C20.0217 20.805 19.5507 21.0007 19 21H5Z" fill="black"/>
</svg>
