<svg width="24" height="24" viewBox="0 0 24 24" fill="none" xmlns="http://www.w3.org/2000/svg">
<path d="M4 19C3.45 19 2.97933 18.8043 2.588 18.413C2.19667 18.0217 2.00067 17.5507 2 17V7C2 6.45 2.196 5.97933 2.588 5.588C2.98 5.19667 3.45067 5.00067 4 5H20C20.55 5 21.021 5.196 21.413 5.588C21.805 5.98 22.0007 6.45067 22 7V13.525C21.7167 13.2583 21.4083 13.0293 21.075 12.838C20.7417 12.6467 20.3833 12.484 20 12.35V7H4V17H12.1C12.0667 17.1667 12.046 17.3293 12.038 17.488C12.03 17.6467 12.0257 17.8173 12.025 18C12.0243 18.1827 12.0287 18.3537 12.038 18.513C12.0473 18.6723 12.068 18.8347 12.1 19H4ZM8 14V16H12.35C12.4833 15.6167 12.65 15.2583 12.85 14.925C13.05 14.5917 13.2833 14.2833 13.55 14H8ZM5 11V13H7V11H5ZM8 11V13H10V11H8ZM11 11V13H13V11H11ZM14 11V13H14.7C14.9 12.8667 15.1083 12.7457 15.325 12.637C15.5417 12.5283 15.7667 12.4327 16 12.35V11H14ZM17 11V12.1C17.1667 12.0667 17.3293 12.0417 17.488 12.025C17.6467 12.0083 17.8173 12 18 12C18.1827 12 18.3537 12.0083 18.513 12.025C18.6723 12.0417 18.8347 12.0667 19 12.1V11H17ZM5 8V10H7V8H5ZM8 8V10H10V8H8ZM11 8V10H13V8H11ZM14 8V10H16V8H14ZM17 8V10H19V8H17ZM18 22L16.6 20.6L18.175 19H14V17H18.175L16.6 15.4L18 14L22 18L18 22Z" fill="black"/>
</svg>
